<svg width="155" height="155" viewBox="0 0 155 155" fill="none" xmlns="http://www.w3.org/2000/svg">
<g clip-path="url(#clip0_801_270)">
<path d="M20.8039 33.998L7.19342 45.6535C5.6152 47.0131 4.6391 48.9419 4.47831 51.0188C4.31752 53.0957 4.9851 55.1518 6.33525 56.7381L20.5153 73.2984C21.6394 72.3866 23.0751 71.9495 24.5166 72.0805C25.9582 72.2114 27.2916 72.8999 28.233 73.9994C29.1745 75.0989 29.6495 76.5225 29.5569 77.9669C29.4643 79.4114 28.8114 80.7627 27.7374 81.733L86.8717 150.791C88.2317 152.37 90.161 153.346 92.2383 153.506C94.3155 153.667 96.372 152.999 97.9585 151.649L111.528 140.032C109.21 137.255 108.079 133.677 108.381 130.072C108.683 126.468 110.393 123.127 113.141 120.774C115.888 118.422 119.452 117.246 123.06 117.502C126.668 117.759 130.03 119.427 132.417 122.144L147.599 109.144C149.178 107.784 150.154 105.855 150.315 103.777C150.476 101.7 149.808 99.6437 148.458 98.057L89.288 28.9613C89.148 29.1306 88.9963 29.29 88.8341 29.4381C87.7118 30.3985 86.2541 30.8738 84.7814 30.7593C83.3087 30.6449 81.9419 29.9502 80.9815 28.8279C80.0211 27.7057 79.5458 26.2479 79.6602 24.7752C79.7747 23.3026 80.4694 21.9357 81.5917 20.9753C81.7629 20.8387 81.9433 20.7141 82.1316 20.6023L67.9192 4.00431C66.5593 2.4259 64.63 1.44983 62.5528 1.28935C60.4756 1.12887 58.4193 1.79704 56.8331 3.14785L41.6065 16.1872C43.575 18.9859 44.4297 22.4178 44.0036 25.8128C43.5775 29.2078 41.9013 32.3221 39.3022 34.5476C36.7032 36.773 33.3679 37.9498 29.9478 37.8481C26.5277 37.7463 23.2683 36.3735 20.8061 33.9975L20.8039 33.998ZM74.1423 34.6896C74.8586 35.5262 75.3108 36.5564 75.4416 37.65C75.5725 38.7436 75.3761 39.8514 74.8774 40.8334C74.3786 41.8154 73.5998 42.6274 72.6396 43.1668C71.6794 43.7062 70.5808 43.9488 69.4827 43.8639C68.3846 43.779 67.3363 43.3704 66.4704 42.6897C65.6045 42.0091 64.9599 41.087 64.6181 40.04C64.2762 38.993 64.2525 37.8682 64.5499 36.8077C64.8473 35.7473 65.4525 34.7988 66.2889 34.0822C67.4108 33.1227 68.8677 32.6477 70.3396 32.7614C71.8115 32.8751 73.1782 33.5683 74.1394 34.6888L74.1423 34.6896ZM58.8353 47.7933C59.5511 48.6304 60.0026 49.661 60.1327 50.7547C60.2629 51.8484 60.0658 52.9562 59.5664 53.9379C59.0669 54.9196 58.2876 55.7311 57.3269 56.2699C56.3662 56.8087 55.2673 57.0505 54.1692 56.9648C53.0711 56.879 52.0231 56.4696 51.1577 55.7882C50.2923 55.1068 49.6484 54.1842 49.3074 53.1368C48.9664 52.0895 48.9436 50.9646 49.2419 49.9043C49.5403 48.844 50.1463 47.896 50.9834 47.1802C51.539 46.7044 52.1829 46.3428 52.8784 46.1161C53.5738 45.8893 54.3072 45.802 55.0364 45.8589C55.7657 45.9159 56.4765 46.116 57.1284 46.4479C57.7802 46.7798 58.3603 47.237 58.8353 47.7933ZM43.5335 60.8964C44.2501 61.733 44.7024 62.7632 44.8334 63.8569C44.9644 64.9506 44.7682 66.0586 44.2694 67.0407C43.7707 68.0229 42.9919 68.835 42.0315 69.3745C41.0712 69.914 39.9724 70.1566 38.8741 70.0715C37.7759 69.9865 36.7276 69.5778 35.8617 68.8969C34.9958 68.2161 34.3513 67.2937 34.0096 66.2465C33.668 65.1994 33.6445 64.0744 33.9422 63.0139C34.24 61.9534 34.8456 61.005 35.6823 60.2886C36.8041 59.3283 38.2615 58.8528 39.7338 58.9668C41.2061 59.0807 42.5729 59.7748 43.5335 60.8964Z" fill="#F39014"/>
<path d="M1.13564 102.544L-3.50266 119.854C-4.03603 121.868 -3.75059 124.012 -2.70875 125.816C-1.66691 127.62 0.0466678 128.939 2.05761 129.484L23.1148 135.126C23.539 133.753 24.4784 132.599 25.7359 131.904C26.9933 131.21 28.471 131.029 29.8586 131.401C31.2462 131.773 32.4357 132.668 33.1775 133.898C33.9192 135.128 34.1554 136.598 33.8365 137.999L121.658 161.53C123.671 162.064 125.814 161.778 127.618 160.737C129.422 159.695 130.741 157.982 131.286 155.971L135.909 138.716C132.426 137.737 129.468 135.425 127.678 132.281C125.888 129.136 125.409 125.413 126.346 121.918C127.282 118.423 129.558 115.438 132.681 113.61C135.803 111.782 139.521 111.258 143.027 112.153L148.2 92.8456C148.733 90.8318 148.448 88.6887 147.407 86.8844C146.366 85.0801 144.652 83.7613 142.642 83.216L54.7793 59.6733C54.7576 59.8922 54.7222 60.1095 54.6733 60.324C54.4919 61.039 54.1704 61.7108 53.7272 62.3005C53.2841 62.8901 52.7283 63.3859 52.0919 63.759C51.4556 64.1321 50.7516 64.375 50.0206 64.4737C49.2896 64.5725 48.5463 64.525 47.8338 64.3341C47.1214 64.1432 46.4539 63.8126 45.8702 63.3617C45.2866 62.9107 44.7983 62.3482 44.4338 61.707C44.0692 61.0657 43.8357 60.3584 43.7468 59.6262C43.6579 58.894 43.7153 58.1514 43.9158 57.4415C43.9811 57.2315 44.0591 57.0256 44.1493 56.825L23.0419 51.1693C21.0278 50.6359 18.8844 50.9212 17.08 51.963C15.2756 53.0048 13.9568 54.7183 13.4117 56.7292L8.22185 76.098C11.427 77.294 14.0714 79.6417 15.6388 82.6826C17.2061 85.7234 17.584 89.2393 16.6985 92.5438C15.8131 95.8483 13.7279 98.7041 10.8501 100.554C7.97232 102.404 4.50838 103.115 1.1346 102.548L1.13564 102.544ZM45.5241 72.9637C46.5881 73.2488 47.5436 73.843 48.2698 74.6712C48.9961 75.4993 49.4604 76.5242 49.6041 77.6163C49.7478 78.7084 49.5645 79.8185 49.0773 80.8064C48.59 81.7943 47.8208 82.6154 46.8668 83.1661C45.9128 83.7168 44.817 83.9721 43.7179 83.9C42.6188 83.8278 41.5657 83.4313 40.6919 82.7607C39.8182 82.09 39.1629 81.1753 38.809 80.1322C38.4551 79.0891 38.4185 77.9645 38.7038 76.9006C38.893 76.1943 39.2196 75.5321 39.6648 74.9519C40.11 74.3718 40.6652 73.885 41.2985 73.5195C41.9318 73.1539 42.631 72.9166 43.356 72.8213C44.0811 72.7259 44.8178 72.7743 45.5241 72.9637V72.9637ZM40.31 92.4233C41.3739 92.7083 42.3294 93.3025 43.0557 94.1307C43.7819 94.9588 44.2462 95.9838 44.3899 97.0758C44.5337 98.1679 44.3503 99.2781 43.8631 100.266C43.3759 101.254 42.6066 102.075 41.6526 102.626C40.6987 103.176 39.6028 103.432 38.5037 103.36C37.4046 103.287 36.3515 102.891 35.4778 102.22C34.604 101.55 33.9487 100.635 33.5948 99.5918C33.2409 98.5487 33.2043 97.4241 33.4896 96.3602C33.6788 95.6538 34.0054 94.9916 34.4506 94.4115C34.8958 93.8313 35.451 93.3446 36.0843 92.979C36.7177 92.6134 37.4168 92.3762 38.1418 92.2808C38.8669 92.1855 39.6036 92.2339 40.31 92.4233V92.4233ZM35.096 111.882C36.16 112.167 37.1154 112.761 37.8416 113.589C38.5679 114.417 39.0323 115.442 39.176 116.534C39.3198 117.626 39.1365 118.736 38.6493 119.724C38.1622 120.712 37.393 121.533 36.4392 122.084C35.4853 122.635 34.3895 122.89 33.2904 122.818C32.1913 122.746 31.1383 122.35 30.2645 121.679C29.3907 121.009 28.7352 120.094 28.3812 119.051C28.0271 118.008 27.9903 116.884 28.2754 115.82C28.4646 115.113 28.7911 114.451 29.2362 113.871C29.6814 113.29 30.2366 112.804 30.87 112.438C31.5034 112.072 32.2026 111.835 32.9277 111.739C33.6528 111.644 34.3896 111.692 35.096 111.882V111.882Z" fill="#FCE367"/>
<path d="M1.13564 102.544L-3.50266 119.854C-4.03603 121.868 -3.75059 124.012 -2.70875 125.816C-1.66691 127.62 0.0466678 128.939 2.05761 129.484L23.1148 135.126C23.5288 133.74 24.4664 132.571 25.7286 131.865C26.9908 131.16 28.4782 130.974 29.8752 131.347L32.2064 122.647C30.7796 122.264 29.5631 121.331 28.8246 120.052C28.086 118.773 27.8859 117.252 28.2682 115.826C28.6505 114.399 29.5839 113.182 30.8632 112.444C32.1424 111.705 33.6626 111.505 35.0894 111.887L37.4229 103.179C35.9962 102.796 34.7799 101.863 34.0414 100.584C33.3029 99.3047 33.1027 97.7846 33.485 96.3579C33.8673 94.9312 34.8007 93.7149 36.0798 92.9764C37.3589 92.2379 38.879 92.0378 40.3056 92.42L42.6371 83.719C41.2104 83.3367 39.9941 82.4034 39.2556 81.1242C38.5171 79.8451 38.3169 78.325 38.6992 76.8984C39.0814 75.4717 40.0148 74.2553 41.294 73.5168C42.5731 72.7783 44.0931 72.5782 45.5198 72.9605L47.8507 64.2614C46.4244 63.8786 45.2083 62.9452 44.4699 61.6662C43.7315 60.3872 43.5311 58.8674 43.9128 57.4408C43.9782 57.2307 44.0562 57.0248 44.1464 56.8242L23.0419 51.1693C21.0278 50.6359 18.8844 50.9212 17.08 51.963C15.2756 53.0048 13.9568 54.7183 13.4117 56.7292L8.22185 76.098C11.427 77.294 14.0714 79.6417 15.6388 82.6826C17.2061 85.7234 17.584 89.2393 16.6985 92.5438C15.8131 95.8483 13.7279 98.7041 10.8501 100.554C7.97232 102.404 4.50838 103.115 1.1346 102.548L1.13564 102.544Z" fill="#F8C140"/>
<path d="M47.8707 126.837C47.9597 126.504 48.1134 126.192 48.3229 125.919C48.5324 125.646 48.7936 125.417 49.0917 125.245C49.3898 125.072 49.719 124.961 50.0603 124.916C50.4017 124.871 50.7485 124.893 51.081 124.982L118.055 142.928C118.727 143.109 119.299 143.548 119.646 144.15C119.994 144.752 120.088 145.468 119.909 146.139V146.139C119.728 146.81 119.289 147.382 118.687 147.729C118.085 148.076 117.37 148.17 116.699 147.99L49.7248 130.044C49.3925 129.955 49.0809 129.802 48.8078 129.592C48.5347 129.383 48.3056 129.122 48.1334 128.824C47.9612 128.527 47.8494 128.198 47.8043 127.857C47.7593 127.516 47.7818 127.169 47.8707 126.837V126.837Z" fill="#F39014"/>
<path d="M61.1817 77.1591C61.3617 76.4877 61.801 75.9152 62.403 75.5676C63.005 75.2201 63.7204 75.1259 64.3918 75.3058L131.366 93.2515C132.038 93.4317 132.61 93.871 132.957 94.4729C133.305 95.0749 133.399 95.7902 133.22 96.4616C133.039 97.1326 132.6 97.7045 131.998 98.0517C131.396 98.3988 130.681 98.4928 130.01 98.313L63.0356 80.3673C62.7032 80.2785 62.3915 80.125 62.1184 79.9157C61.8453 79.7064 61.6161 79.4453 61.4439 79.1474C61.2717 78.8494 61.16 78.5205 61.115 78.1793C61.07 77.8382 61.0927 77.4915 61.1817 77.1591V77.1591Z" fill="#F39014"/>
<path d="M80.8099 115.679C81.0565 115.012 81.1673 114.303 81.1358 113.594C81.1043 112.884 80.9311 112.187 80.6264 111.546L77.0444 105C76.4374 103.893 76.9728 103.08 78.2319 103.204L85.6572 103.925C86.3674 103.954 87.0762 103.84 87.7417 103.591C88.4072 103.341 89.0157 102.96 89.5315 102.471L94.6495 97.0438C95.5177 96.1221 96.4531 96.379 96.726 97.6168L98.3345 104.901C98.5265 105.586 98.8538 106.225 99.2971 106.78C99.7403 107.336 100.291 107.797 100.915 108.136L107.656 111.326C108.803 111.868 108.847 112.837 107.755 113.48L101.323 117.26C100.732 117.654 100.226 118.163 99.8343 118.755C99.4429 119.348 99.1741 120.013 99.0437 120.712L98.0959 128.112C97.9347 129.371 97.0259 129.71 96.078 128.87L90.4946 123.921C89.9368 123.481 89.2964 123.157 88.6112 122.968C87.9261 122.779 87.2101 122.729 86.5054 122.821L79.1755 124.201C77.93 124.437 77.3257 123.679 77.8309 122.516L80.8099 115.679Z" fill="#F39014"/>
</g>
<defs>
<clipPath id="clip0_801_270">
<rect width="154.79" height="154.79" fill="white"/>
</clipPath>
</defs>
</svg>
