<svg width="32" height="18" viewBox="0 0 32 18" fill="#ffffff" xmlns="http://www.w3.org/2000/svg">
<path d="M0.032 8.624C0.032 6.992 0.4 5.528 1.136 4.232C1.872 2.92 2.872 1.896 4.136 1.16C5.416 0.423999 6.832 0.0559993 8.384 0.0559993C10.208 0.0559993 11.8 0.495999 13.16 1.376C14.52 2.256 15.512 3.504 16.136 5.12H13.52C13.056 4.112 12.384 3.336 11.504 2.792C10.64 2.248 9.6 1.976 8.384 1.976C7.216 1.976 6.168 2.248 5.24 2.792C4.312 3.336 3.584 4.112 3.056 5.12C2.528 6.112 2.264 7.28 2.264 8.624C2.264 9.952 2.528 11.12 3.056 12.128C3.584 13.12 4.312 13.888 5.24 14.432C6.168 14.976 7.216 15.248 8.384 15.248C9.6 15.248 10.64 14.984 11.504 14.456C12.384 13.912 13.056 13.136 13.52 12.128H16.136C15.512 13.728 14.52 14.968 13.16 15.848C11.8 16.712 10.208 17.144 8.384 17.144C6.832 17.144 5.416 16.784 4.136 16.064C2.872 15.328 1.872 14.312 1.136 13.016C0.4 11.72 0.032 10.256 0.032 8.624ZM31.4111 5.432C31.4111 6.328 31.1951 7.168 30.7631 7.952C30.3471 8.736 29.6831 9.368 28.7711 9.848C27.8751 10.328 26.7391 10.568 25.3631 10.568H22.5551V17H19.1951V0.248H25.3631C26.6591 0.248 27.7631 0.472 28.6751 0.92C29.5871 1.368 30.2671 1.984 30.7151 2.768C31.1791 3.552 31.4111 4.44 31.4111 5.432ZM25.2191 7.856C26.1471 7.856 26.8351 7.648 27.2831 7.232C27.7311 6.8 27.9551 6.2 27.9551 5.432C27.9551 3.8 27.0431 2.984 25.2191 2.984H22.5551V7.856H25.2191Z" fill="white"/>
</svg>
