<svg width="199" height="18" viewBox="0 0 199 18" fill="#ffffff" xmlns="http://www.w3.org/2000/svg">
<path d="M0.032 8.624C0.032 6.992 0.4 5.528 1.136 4.232C1.872 2.92 2.872 1.896 4.136 1.16C5.416 0.423999 6.832 0.0559993 8.384 0.0559993C10.208 0.0559993 11.8 0.495999 13.16 1.376C14.52 2.256 15.512 3.504 16.136 5.12H13.52C13.056 4.112 12.384 3.336 11.504 2.792C10.64 2.248 9.6 1.976 8.384 1.976C7.216 1.976 6.168 2.248 5.24 2.792C4.312 3.336 3.584 4.112 3.056 5.12C2.528 6.112 2.264 7.28 2.264 8.624C2.264 9.952 2.528 11.12 3.056 12.128C3.584 13.12 4.312 13.888 5.24 14.432C6.168 14.976 7.216 15.248 8.384 15.248C9.6 15.248 10.64 14.984 11.504 14.456C12.384 13.912 13.056 13.136 13.52 12.128H16.136C15.512 13.728 14.52 14.968 13.16 15.848C11.8 16.712 10.208 17.144 8.384 17.144C6.832 17.144 5.416 16.784 4.136 16.064C2.872 15.328 1.872 14.312 1.136 13.016C0.4 11.72 0.032 10.256 0.032 8.624ZM21.5711 0.271999V17H19.3871V0.271999H21.5711ZM38.4453 17H36.2613L27.4773 3.68V17H25.2933V0.248H27.4773L36.2613 13.544V0.248H38.4453V17ZM44.3523 2.048V7.64H50.4483V9.44H44.3523V15.2H51.1683V17H42.1683V0.248H51.1683V2.048H44.3523ZM59.777 17.168C58.673 17.168 57.681 16.976 56.801 16.592C55.937 16.192 55.257 15.648 54.761 14.96C54.265 14.256 54.009 13.448 53.993 12.536H56.321C56.401 13.32 56.721 13.984 57.281 14.528C57.857 15.056 58.689 15.32 59.777 15.32C60.817 15.32 61.633 15.064 62.225 14.552C62.833 14.024 63.137 13.352 63.137 12.536C63.137 11.896 62.961 11.376 62.609 10.976C62.257 10.576 61.817 10.272 61.289 10.064C60.761 9.856 60.049 9.632 59.153 9.392C58.049 9.104 57.161 8.816 56.489 8.528C55.833 8.24 55.265 7.792 54.785 7.184C54.321 6.56 54.089 5.728 54.089 4.688C54.089 3.776 54.321 2.968 54.785 2.264C55.249 1.56 55.897 1.016 56.729 0.631999C57.577 0.247999 58.545 0.0559993 59.633 0.0559993C61.201 0.0559993 62.481 0.447999 63.473 1.232C64.481 2.016 65.049 3.056 65.177 4.352H62.777C62.697 3.712 62.361 3.152 61.769 2.672C61.177 2.176 60.393 1.928 59.417 1.928C58.505 1.928 57.761 2.168 57.185 2.648C56.609 3.112 56.321 3.768 56.321 4.616C56.321 5.224 56.489 5.72 56.825 6.104C57.177 6.488 57.601 6.784 58.097 6.992C58.609 7.184 59.321 7.408 60.233 7.664C61.337 7.968 62.225 8.272 62.897 8.576C63.569 8.864 64.145 9.32 64.625 9.944C65.105 10.552 65.345 11.384 65.345 12.44C65.345 13.256 65.129 14.024 64.697 14.744C64.265 15.464 63.625 16.048 62.777 16.496C61.929 16.944 60.929 17.168 59.777 17.168ZM80.5829 5.432C80.5829 6.328 80.3669 7.168 79.9349 7.952C79.5189 8.736 78.8549 9.368 77.9429 9.848C77.0469 10.328 75.9109 10.568 74.5349 10.568H71.7269V17H68.3669V0.248H74.5349C75.8309 0.248 76.9349 0.472 77.8469 0.92C78.7589 1.368 79.4389 1.984 79.8869 2.768C80.3509 3.552 80.5829 4.44 80.5829 5.432ZM74.3909 7.856C75.3189 7.856 76.0069 7.648 76.4549 7.232C76.9029 6.8 77.1269 6.2 77.1269 5.432C77.1269 3.8 76.2149 2.984 74.3909 2.984H71.7269V7.856H74.3909ZM93.2405 13.808H86.5685L85.4645 17H81.9365L87.9605 0.223999H91.8725L97.8965 17H94.3445L93.2405 13.808ZM92.3285 11.12L89.9045 4.112L87.4805 11.12H92.3285ZM108.788 17L105.092 10.472H103.508V17H100.148V0.248H106.436C107.732 0.248 108.836 0.48 109.748 0.943999C110.66 1.392 111.34 2.008 111.788 2.792C112.252 3.56 112.484 4.424 112.484 5.384C112.484 6.488 112.164 7.488 111.524 8.384C110.884 9.264 109.932 9.872 108.668 10.208L112.676 17H108.788ZM103.508 7.952H106.316C107.228 7.952 107.908 7.736 108.356 7.304C108.804 6.856 109.028 6.24 109.028 5.456C109.028 4.688 108.804 4.096 108.356 3.68C107.908 3.248 107.228 3.032 106.316 3.032H103.508V7.952ZM125.795 13.808H119.123L118.019 17H114.491L120.515 0.223999H124.427L130.451 17H126.899L125.795 13.808ZM124.883 11.12L122.459 4.112L120.035 11.12H124.883ZM144.367 5.288C143.983 4.584 143.455 4.048 142.783 3.68C142.111 3.312 141.327 3.128 140.431 3.128C139.439 3.128 138.559 3.352 137.791 3.8C137.023 4.248 136.423 4.888 135.991 5.72C135.559 6.552 135.343 7.512 135.343 8.6C135.343 9.72 135.559 10.696 135.991 11.528C136.439 12.36 137.055 13 137.839 13.448C138.623 13.896 139.535 14.12 140.575 14.12C141.855 14.12 142.903 13.784 143.719 13.112C144.535 12.424 145.071 11.472 145.327 10.256H139.567V7.688H148.639V10.616C148.415 11.784 147.935 12.864 147.199 13.856C146.463 14.848 145.511 15.648 144.343 16.256C143.191 16.848 141.895 17.144 140.455 17.144C138.839 17.144 137.375 16.784 136.063 16.064C134.767 15.328 133.743 14.312 132.991 13.016C132.255 11.72 131.887 10.248 131.887 8.6C131.887 6.952 132.255 5.48 132.991 4.184C133.743 2.872 134.767 1.856 136.063 1.136C137.375 0.4 138.831 0.0319996 140.431 0.0319996C142.319 0.0319996 143.959 0.495999 145.351 1.424C146.743 2.336 147.703 3.624 148.231 5.288H144.367ZM154.437 0.248V10.616C154.437 11.752 154.733 12.624 155.325 13.232C155.917 13.824 156.749 14.12 157.821 14.12C158.909 14.12 159.749 13.824 160.341 13.232C160.933 12.624 161.229 11.752 161.229 10.616V0.248H164.613V10.592C164.613 12.016 164.301 13.224 163.677 14.216C163.069 15.192 162.245 15.928 161.205 16.424C160.181 16.92 159.037 17.168 157.773 17.168C156.525 17.168 155.389 16.92 154.365 16.424C153.357 15.928 152.557 15.192 151.965 14.216C151.373 13.224 151.077 12.016 151.077 10.592V0.248H154.437ZM178.131 13.808H171.459L170.355 17H166.827L172.851 0.223999H176.763L182.787 17H179.235L178.131 13.808ZM177.219 11.12L174.795 4.112L172.371 11.12H177.219ZM198.359 0.248L192.695 11.168V17H189.335V11.168L183.647 0.248H187.439L191.039 7.904L194.615 0.248H198.359Z" fill="white"/>
</svg>
